<svg width="32" height="32" viewBox="0 0 32 32" fill="none" xmlns="http://www.w3.org/2000/svg">
<path d="M29.76 9.56C29.5983 8.92847 29.3492 8.32262 29.02 7.76C28.7045 7.17416 28.2997 6.64109 27.82 6.18C27.1253 5.48905 26.3035 4.93896 25.4 4.56C23.5803 3.81318 21.5396 3.81318 19.72 4.56C18.8655 4.92168 18.0805 5.42924 17.4 6.06L17.3 6.18L16 7.48L14.7 6.18L14.6 6.06C13.9195 5.42924 13.1344 4.92168 12.28 4.56C10.4603 3.81318 8.41965 3.81318 6.59996 4.56C5.69641 4.93896 4.87466 5.48905 4.17996 6.18C3.23068 7.10366 2.5587 8.27444 2.23996 9.56C2.07157 10.2131 1.99086 10.8856 1.99996 11.56C1.99996 12.196 2.07996 12.828 2.23996 13.44C2.40763 14.0601 2.64937 14.6577 2.95996 15.22C3.29539 15.798 3.70559 16.3293 4.17996 16.8L16 28.62L27.82 16.8C28.294 16.336 28.7 15.804 29.02 15.22C29.6675 14.1094 30.0059 12.8456 30 11.56C30.0091 10.8856 29.9283 10.2131 29.76 9.56Z" fill="#FF3939"/>
</svg>
