<svg width="28" height="25" viewBox="0 0 28 25" fill="none" xmlns="http://www.w3.org/2000/svg">
<path d="M27.76 5.56C27.5983 4.92847 27.3492 4.32262 27.02 3.76C26.7045 3.17416 26.2997 2.64109 25.82 2.18C25.1253 1.48905 24.3035 0.938958 23.4 0.560001C21.5803 -0.18682 19.5396 -0.18682 17.72 0.560001C16.8655 0.921678 16.0805 1.42924 15.4 2.06L15.3 2.18L14 3.48L12.7 2.18L12.6 2.06C11.9195 1.42924 11.1344 0.921678 10.28 0.560001C8.46027 -0.18682 6.41965 -0.18682 4.59996 0.560001C3.69641 0.938958 2.87466 1.48905 2.17996 2.18C1.23068 3.10366 0.558701 4.27444 0.239959 5.56C0.071573 6.21307 -0.00913574 6.88564 -4.14105e-05 7.56C-4.14105e-05 8.194 0.0799586 8.826 0.239959 9.44C0.407626 10.0601 0.649367 10.6577 0.959959 11.22C1.29539 11.798 1.70559 12.3293 2.17996 12.8L14 24.62L25.82 12.8C26.294 12.334 26.7 11.8 27.02 11.22C27.6675 10.1094 28.0059 8.84562 28 7.56C28.0091 6.88564 27.9283 6.21307 27.76 5.56ZM25.76 8.82C25.5195 9.73348 25.0437 10.5679 24.38 11.24L13.96 21.64L3.53996 11.24C3.20192 10.8967 2.90646 10.514 2.65996 10.1C2.42957 9.68936 2.24833 9.25302 2.11996 8.8C2.01823 8.34691 1.9646 7.88435 1.95996 7.42C1.96327 6.94236 2.0169 6.4664 2.11996 6C2.24456 5.54568 2.42599 5.1089 2.65996 4.7C2.90129 4.28 3.19463 3.9 3.53996 3.56C4.05345 3.05273 4.65712 2.64576 5.31996 2.36C6.65519 1.82585 8.14473 1.82585 9.47996 2.36C10.14 2.634 10.736 3.036 11.24 3.54L13.96 6.28L16.68 3.54C17.1829 3.03429 17.7811 2.63324 18.44 2.36C19.7752 1.82585 21.2647 1.82585 22.6 2.36C23.262 2.646 23.866 3.054 24.38 3.56C24.728 3.89 25.02 4.274 25.24 4.7C25.7023 5.51728 25.9436 6.441 25.94 7.38C25.9672 7.86325 25.9268 8.34792 25.82 8.82H25.76Z" fill="white" fill-opacity="0.8"/>
</svg>
