<svg width="32" height="32" viewBox="0 0 32 32" fill="none" xmlns="http://www.w3.org/2000/svg">
<path d="M13.812 1.32799C14.4327 0.831229 15.204 0.560577 15.999 0.560577C16.794 0.560577 17.5653 0.831229 18.186 1.32799L28.686 9.72799C29.516 10.392 30 11.398 30 12.462V26.5C30 27.4282 29.6313 28.3185 28.9749 28.9749C28.3185 29.6312 27.4283 30 26.5 30H19.5C19.1022 30 18.7206 29.842 18.4393 29.5606C18.158 29.2793 18 28.8978 18 28.5V18H14V28.5C14 28.8978 13.842 29.2793 13.5607 29.5606C13.2794 29.842 12.8978 30 12.5 30H5.5C4.57174 30 3.6815 29.6312 3.02513 28.9749C2.36875 28.3185 2 27.4282 2 26.5V12.46C2 11.398 2.484 10.392 3.314 9.72799L13.812 1.32799ZM16.312 3.66999C16.2234 3.59924 16.1134 3.5607 16 3.5607C15.8866 3.5607 15.7766 3.59924 15.688 3.66999L5.188 12.07C5.12918 12.117 5.08172 12.1766 5.04917 12.2445C5.01661 12.3124 4.99981 12.3867 5 12.462V26.5C5 26.776 5.224 27 5.5 27H11V16.5C11 16.1022 11.158 15.7206 11.4393 15.4393C11.7206 15.158 12.1022 15 12.5 15H19.5C19.8978 15 20.2794 15.158 20.5607 15.4393C20.842 15.7206 21 16.1022 21 16.5V27H26.5C26.6326 27 26.7598 26.9473 26.8536 26.8535C26.9473 26.7598 27 26.6326 27 26.5V12.46C26.9999 12.3851 26.9829 12.3111 26.9504 12.2436C26.9179 12.1761 26.8706 12.1168 26.812 12.07L16.312 3.66999Z" fill="white" fill-opacity="0.8"/>
</svg>
