<svg width="24" height="24" viewBox="0 0 32 32" fill="none" xmlns="http://www.w3.org/2000/svg">
<path d="M24 1H4C2.34315 1 1 2.34315 1 4V20C1 21.6569 2.34315 23 4 23H24C25.6569 23 27 21.6569 27 20V4C27 2.34315 25.6569 1 24 1Z" stroke="#3787FF" stroke-width="2" stroke-linejoin="round"/>
<path d="M19 9C20.1046 9 21 8.10457 21 7C21 5.89543 20.1046 5 19 5C17.8954 5 17 5.89543 17 7C17 8.10457 17.8954 9 19 9Z" stroke="#3787FF" stroke-width="2" stroke-miterlimit="10"/>
<path d="M17 16.9869L11.3337 11.3312C10.9732 10.9708 10.4886 10.7616 9.97894 10.7465C9.46931 10.7314 8.97315 10.9115 8.59188 11.25L1 18M12 23L19.7087 15.2912C20.0613 14.938 20.5332 14.7293 21.0317 14.7062C21.5302 14.6831 22.0194 14.8472 22.4031 15.1662L27 19" stroke="#3787FF" stroke-width="2" stroke-linecap="round" stroke-linejoin="round"/>
</svg>
