<svg width="32" height="32" viewBox="0 0 32 32" fill="none" xmlns="http://www.w3.org/2000/svg">
<path fill-rule="evenodd" clip-rule="evenodd" d="M26.6666 5.33332H5.33331C4.97969 5.33332 4.64055 5.4738 4.3905 5.72385C4.14046 5.9739 3.99998 6.31303 3.99998 6.66666V25.3333C3.99998 25.6869 4.14046 26.0261 4.3905 26.2761C4.64055 26.5262 4.97969 26.6667 5.33331 26.6667H26.6666C27.0203 26.6667 27.3594 26.5262 27.6095 26.2761C27.8595 26.0261 28 25.6869 28 25.3333V6.66666C28 6.31303 27.8595 5.9739 27.6095 5.72385C27.3594 5.4738 27.0203 5.33332 26.6666 5.33332ZM5.33331 2.66666C4.27245 2.66666 3.25503 3.08808 2.50489 3.83823C1.75474 4.58837 1.33331 5.60579 1.33331 6.66666V25.3333C1.33331 26.3942 1.75474 27.4116 2.50489 28.1617C3.25503 28.9119 4.27245 29.3333 5.33331 29.3333H26.6666C27.7275 29.3333 28.7449 28.9119 29.4951 28.1617C30.2452 27.4116 30.6666 26.3942 30.6666 25.3333V6.66666C30.6666 5.60579 30.2452 4.58837 29.4951 3.83823C28.7449 3.08808 27.7275 2.66666 26.6666 2.66666H5.33331ZM7.99998 9.33332H10.6666V12H7.99998V9.33332ZM14.6666 9.33332C14.313 9.33332 13.9739 9.4738 13.7238 9.72385C13.4738 9.9739 13.3333 10.313 13.3333 10.6667C13.3333 11.0203 13.4738 11.3594 13.7238 11.6095C13.9739 11.8595 14.313 12 14.6666 12H22.6666C23.0203 12 23.3594 11.8595 23.6095 11.6095C23.8595 11.3594 24 11.0203 24 10.6667C24 10.313 23.8595 9.9739 23.6095 9.72385C23.3594 9.4738 23.0203 9.33332 22.6666 9.33332H14.6666ZM10.6666 14.6667H7.99998V17.3333H10.6666V14.6667ZM13.3333 16C13.3333 15.6464 13.4738 15.3072 13.7238 15.0572C13.9739 14.8071 14.313 14.6667 14.6666 14.6667H22.6666C23.0203 14.6667 23.3594 14.8071 23.6095 15.0572C23.8595 15.3072 24 15.6464 24 16C24 16.3536 23.8595 16.6927 23.6095 16.9428C23.3594 17.1928 23.0203 17.3333 22.6666 17.3333H14.6666C14.313 17.3333 13.9739 17.1928 13.7238 16.9428C13.4738 16.6927 13.3333 16.3536 13.3333 16ZM10.6666 20H7.99998V22.6667H10.6666V20ZM13.3333 21.3333C13.3333 20.9797 13.4738 20.6406 13.7238 20.3905C13.9739 20.1405 14.313 20 14.6666 20H22.6666C23.0203 20 23.3594 20.1405 23.6095 20.3905C23.8595 20.6406 24 20.9797 24 21.3333C24 21.6869 23.8595 22.0261 23.6095 22.2761C23.3594 22.5262 23.0203 22.6667 22.6666 22.6667H14.6666C14.313 22.6667 13.9739 22.5262 13.7238 22.2761C13.4738 22.0261 13.3333 21.6869 13.3333 21.3333Z" fill="white" fill-opacity="0.8"/>
</svg>
