<svg width="32" height="32" viewBox="0 0 32 32" fill="none" xmlns="http://www.w3.org/2000/svg">
<path d="M9.33335 18.6667C10.0406 18.6667 10.7189 18.3857 11.219 17.8856C11.7191 17.3855 12 16.7073 12 16C12 15.2928 11.7191 14.6145 11.219 14.1144C10.7189 13.6143 10.0406 13.3333 9.33335 13.3333C8.62611 13.3333 7.94783 13.6143 7.44774 14.1144C6.94764 14.6145 6.66669 15.2928 6.66669 16C6.66669 16.7073 6.94764 17.3855 7.44774 17.8856C7.94783 18.3857 8.62611 18.6667 9.33335 18.6667ZM18.6667 16C18.6667 16.7073 18.3857 17.3855 17.8856 17.8856C17.3855 18.3857 16.7073 18.6667 16 18.6667C15.2928 18.6667 14.6145 18.3857 14.1144 17.8856C13.6143 17.3855 13.3334 16.7073 13.3334 16C13.3334 15.2928 13.6143 14.6145 14.1144 14.1144C14.6145 13.6143 15.2928 13.3333 16 13.3333C16.7073 13.3333 17.3855 13.6143 17.8856 14.1144C18.3857 14.6145 18.6667 15.2928 18.6667 16ZM22.6667 18.6667C23.3739 18.6667 24.0522 18.3857 24.5523 17.8856C25.0524 17.3855 25.3334 16.7073 25.3334 16C25.3334 15.2928 25.0524 14.6145 24.5523 14.1144C24.0522 13.6143 23.3739 13.3333 22.6667 13.3333C21.9594 13.3333 21.2812 13.6143 20.7811 14.1144C20.281 14.6145 20 15.2928 20 16C20 16.7073 20.281 17.3855 20.7811 17.8856C21.2812 18.3857 21.9594 18.6667 22.6667 18.6667Z" fill="white" fill-opacity="0.8"/>
<path fill-rule="evenodd" clip-rule="evenodd" d="M32 16C32 24.836 24.836 32 16 32C7.164 32 0 24.836 0 16C0 7.164 7.164 0 16 0C24.836 0 32 7.164 32 16ZM29.3333 16C29.3333 23.364 23.364 29.3333 16 29.3333C8.636 29.3333 2.66667 23.364 2.66667 16C2.66667 8.636 8.636 2.66667 16 2.66667C23.364 2.66667 29.3333 8.636 29.3333 16Z" fill="white" fill-opacity="0.8"/>
</svg>
