<svg width="32" height="32" viewBox="0 0 32 32" fill="none" xmlns="http://www.w3.org/2000/svg">
<path fill-rule="evenodd" clip-rule="evenodd" d="M6.66668 12C6.66663 10.7089 6.93446 9.43183 7.45323 8.24954C7.97199 7.06724 8.73041 6.00544 9.68054 5.13125C10.6307 4.25706 11.7518 3.58951 12.9731 3.1708C14.1945 2.75209 15.4894 2.59132 16.776 2.69867C16.9525 2.71031 17.125 2.75697 17.2833 2.83593C17.4416 2.91489 17.5827 3.02456 17.6982 3.15857C17.8137 3.29257 17.9014 3.44823 17.9561 3.61646C18.0109 3.78469 18.0316 3.96214 18.0171 4.13846C18.0026 4.31478 17.9531 4.48645 17.8716 4.64347C17.7901 4.80049 17.6781 4.93971 17.5423 5.05303C17.4064 5.16635 17.2494 5.2515 17.0803 5.30352C16.9112 5.35553 16.7334 5.37337 16.5573 5.356C15.6381 5.27888 14.7128 5.39338 13.84 5.69228C12.9673 5.99117 12.1661 6.46793 11.4871 7.09242C10.8081 7.71691 10.2661 8.47551 9.89534 9.32026C9.52462 10.165 9.33325 11.0775 9.33334 12V16.704C9.3333 17.3252 9.18859 17.9378 8.91068 18.4933L7.49068 21.3333H24.5093L23.0893 18.4933C22.8114 17.9378 22.6667 17.3252 22.6667 16.704V14.6667C22.6667 14.313 22.8071 13.9739 23.0572 13.7239C23.3072 13.4738 23.6464 13.3333 24 13.3333C24.3536 13.3333 24.6928 13.4738 24.9428 13.7239C25.1929 13.9739 25.3333 14.313 25.3333 14.6667V16.704C25.3331 16.9108 25.3811 17.1149 25.4733 17.3L27.7627 21.8773C27.8745 22.101 27.9273 22.3495 27.9161 22.5992C27.9048 22.849 27.8299 23.0918 27.6985 23.3045C27.567 23.5171 27.3834 23.6927 27.165 23.8144C26.9466 23.9362 26.7007 24 26.4507 24H21.1653C20.8688 25.1443 20.2006 26.1578 19.2657 26.8812C18.3308 27.6047 17.1821 27.9973 16 27.9973C14.8179 27.9973 13.6692 27.6047 12.7343 26.8812C11.7994 26.1578 11.1313 25.1443 10.8347 24H5.54934C5.29931 24 5.05342 23.9362 4.83503 23.8144C4.61664 23.6927 4.43299 23.5171 4.30154 23.3045C4.17008 23.0918 4.09518 22.849 4.08394 22.5992C4.0727 22.3495 4.12551 22.101 4.23734 21.8773L6.52534 17.3C6.61807 17.115 6.66645 16.9109 6.66668 16.704V12ZM13.6907 24C13.9247 24.4054 14.2614 24.742 14.6667 24.976C15.0721 25.21 15.5319 25.3332 16 25.3332C16.4681 25.3332 16.9279 25.21 17.3333 24.976C17.7387 24.742 18.0753 24.4054 18.3093 24H13.6907ZM23.3333 5.33333C23.0707 5.33333 22.8106 5.38507 22.568 5.48558C22.3253 5.58608 22.1048 5.7334 21.9191 5.91912C21.7334 6.10484 21.5861 6.32532 21.4856 6.56797C21.3851 6.81062 21.3333 7.07069 21.3333 7.33333C21.3333 7.59598 21.3851 7.85605 21.4856 8.0987C21.5861 8.34135 21.7334 8.56183 21.9191 8.74755C22.1048 8.93327 22.3253 9.08058 22.568 9.18109C22.8106 9.2816 23.0707 9.33333 23.3333 9.33333C23.8638 9.33333 24.3725 9.12262 24.7476 8.74755C25.1226 8.37248 25.3333 7.86377 25.3333 7.33333C25.3333 6.8029 25.1226 6.29419 24.7476 5.91912C24.3725 5.54405 23.8638 5.33333 23.3333 5.33333ZM18.6667 7.33333C18.6667 6.09566 19.1583 4.90867 20.0335 4.0335C20.9087 3.15833 22.0957 2.66667 23.3333 2.66667C24.571 2.66667 25.758 3.15833 26.6332 4.0335C27.5083 4.90867 28 6.09566 28 7.33333C28 8.57101 27.5083 9.758 26.6332 10.6332C25.758 11.5083 24.571 12 23.3333 12C22.0957 12 20.9087 11.5083 20.0335 10.6332C19.1583 9.758 18.6667 8.57101 18.6667 7.33333Z" fill="white" fill-opacity="0.8"/>
</svg>
